<?xml version="1.0" standalone="no"?>
<!DOCTYPE svg PUBLIC "-//W3C//DTD SVG 20010904//EN"
 "http://www.w3.org/TR/2001/REC-SVG-20010904/DTD/svg10.dtd">
<svg version="1.0" xmlns="http://www.w3.org/2000/svg"
 width="127.000000pt" height="127.000000pt" viewBox="0 0 127.000000 127.000000"
 preserveAspectRatio="xMidYMid meet">
<metadata>
Created by potrace 1.11, written by Peter Selinger 2001-2013
</metadata>
<g transform="translate(0.000000,127.000000) scale(0.100000,-0.100000)"
fill="#000000" stroke="none">
<path d="M82 1077 c-22 -23 -22 -27 -22 -370 0 -334 1 -348 20 -367 11 -11 23
-20 28 -21 4 -1 239 -2 522 -3 535 -2 559 0 574 39 3 9 6 170 6 358 -1 289 -3
345 -16 362 -14 20 -28 20 -552 23 l-538 2 -22 -23z"/>
<path d="M3 243 c3 -29 12 -52 23 -60 15 -11 131 -13 617 -11 579 3 599 4 613
22 8 11 14 37 14 58 l0 38 -636 0 -637 0 6 -47z"/>
</g>
</svg>
